<svg width="80" height="90" viewBox="0 0 80 90" fill="none" xmlns="http://www.w3.org/2000/svg">
<path d="M35.9666 37.9399C34.5912 38.734 33.4821 39.9181 32.7796 41.3426C32.0772 42.767 31.8129 44.3678 32.0202 45.9424C32.2275 47.5171 32.8972 48.9949 33.9444 50.189C34.9916 51.3831 36.3694 52.2398 37.9035 52.6508C39.4376 53.0619 41.0592 53.0087 42.5631 52.4982C44.0671 51.9876 45.3858 51.0425 46.3526 49.7824C47.3194 48.5224 47.8909 47.0039 47.9947 45.4191C48.0985 43.8342 47.73 42.2542 46.9358 40.8788C45.8708 39.0346 44.1169 37.6889 42.0598 37.1378C40.0028 36.5866 37.811 36.8752 35.9666 37.9399V37.9399ZM71.9586 46.6524C71.4314 46.0499 70.8751 45.4457 70.2897 44.84C70.6986 44.4102 71.0943 43.9808 71.4767 43.5518C78.6971 35.4392 81.7445 27.3033 78.9208 22.4121C76.2132 17.7224 68.1591 16.3248 58.076 18.2854C57.0829 18.4797 56.0952 18.6988 55.113 18.9429C54.9249 18.2947 54.725 17.6502 54.513 17.0095C51.0924 6.70145 45.5668 -0.00355071 39.9192 1.41067e-06C34.5038 0.0024744 29.2697 6.28181 25.9308 15.9958C25.6023 16.9541 25.2984 17.9203 25.0191 18.8946C24.3624 18.7335 23.7029 18.5847 23.0407 18.4481C12.4024 16.2639 3.8338 17.7024 1.01562 22.5964C-1.68669 27.2896 1.13941 34.9606 7.88834 42.7046C8.55766 43.4709 9.24593 44.2199 9.95315 44.9517C9.11944 45.8105 8.32997 46.6688 7.59414 47.5223C1.00879 55.1571 -1.65571 62.7027 1.04224 67.3756C3.82858 72.2023 12.2765 73.78 22.5591 71.7566C23.3924 71.5914 24.2211 71.4056 25.0452 71.1991C25.3471 72.2529 25.6782 73.2975 26.0387 74.333C29.3629 83.8521 34.5676 89.9292 39.9639 89.9273C45.5368 89.924 51.1235 83.3946 54.5084 73.4762C54.7757 72.6924 55.0287 71.8785 55.2686 71.0403C56.3331 71.3052 57.4045 71.5402 58.4828 71.7454C68.3899 73.6198 76.2546 72.1455 78.9477 67.4693C81.7286 62.639 78.8613 54.5377 71.9584 46.6524H71.9586ZM4.34467 24.5134C6.07963 21.5008 13.0822 20.3255 22.2675 22.2112C22.8545 22.332 23.4516 22.4669 24.0587 22.6159C23.162 26.5829 22.5292 30.605 22.1646 34.6557C18.8503 36.9873 15.6905 39.5309 12.7048 42.2707C12.047 41.5904 11.4067 40.8936 10.784 40.1803L10.7843 40.1806C5.00168 33.5453 2.71614 27.3414 4.34467 24.5134ZM21.8205 50.2689C19.5248 48.5306 17.3913 46.7498 15.4549 44.9587C17.39 43.1787 19.5248 41.4039 21.8158 39.6703C21.7335 41.4363 21.6927 43.2037 21.6934 44.9724C21.6946 46.7385 21.737 48.504 21.8205 50.2689V50.2689ZM21.8177 67.9872C17.9206 68.8538 13.8972 68.9957 9.94865 68.406C8.86623 68.3217 7.81259 68.0164 6.85284 67.5088C5.89309 67.0012 5.04762 66.3022 4.36868 65.455C2.7317 62.6193 4.87119 56.5612 10.5031 50.0315C11.2112 49.2132 11.9425 48.4162 12.697 47.6406C15.6831 50.3947 18.8481 52.9484 22.1713 55.2847C22.5409 59.3872 23.1811 63.4608 24.0877 67.4788C23.3354 67.667 22.5787 67.8364 21.8177 67.9872ZM53.7469 31.8395C52.2388 30.8892 50.7121 29.9695 49.1668 29.0803C47.6462 28.205 46.1072 27.3626 44.55 26.553C47.2163 25.4319 49.8373 24.4744 52.3676 23.6942C52.964 26.3844 53.4244 29.1029 53.7469 31.8395V31.8395ZM29.5638 17.2444C32.4246 8.92107 36.6574 3.84294 39.9213 3.84155C43.3973 3.83988 47.9137 9.31927 50.8669 18.2192C51.0587 18.7994 51.2401 19.3828 51.4109 19.9695C47.5311 21.1729 43.7351 22.6317 40.0479 24.3364C36.3761 22.6117 32.5921 21.1366 28.7216 19.9213C28.9803 19.0222 29.2611 18.13 29.5638 17.2444ZM27.7636 23.6463C30.4029 24.4772 32.9986 25.4406 35.5408 26.533C32.3909 28.1585 29.3223 29.9292 26.3352 31.8449C26.6961 28.9763 27.1763 26.2278 27.7636 23.6463ZM26.3418 58.0914C27.8314 59.045 29.3428 59.9634 30.876 60.8464C32.44 61.7469 34.0247 62.6095 35.6303 63.4344C33.0686 64.5645 30.4506 65.5624 27.7867 66.4241C27.1925 63.8068 26.707 61.01 26.3418 58.0914ZM50.8724 72.2347C49.6762 76.0437 47.7892 79.6 45.3056 82.7258L45.3053 82.7261C44.6915 83.6215 43.9007 84.3815 42.9816 84.9592C42.0625 85.5369 41.0348 85.92 39.9618 86.0849C36.6875 86.0867 32.5084 81.2063 29.6655 73.0659C29.3307 72.1034 29.0227 71.1322 28.7415 70.1523C32.6304 68.8977 36.4298 67.3809 40.1135 65.6123C43.8311 67.328 47.6572 68.7978 51.5674 70.012C51.3538 70.7583 51.1222 71.4992 50.8724 72.2347ZM52.5012 66.2806C49.9418 65.4892 47.2828 64.5156 44.578 63.3781C46.1028 62.5757 47.6386 61.7282 49.1855 60.8357C50.7729 59.9191 52.3198 58.9795 53.8262 58.017C53.5261 60.7924 53.0839 63.5506 52.5012 66.2807V66.2806ZM54.5079 44.9558C54.5112 47.6864 54.426 50.4149 54.2521 53.1411C52.0369 54.6404 49.6981 56.1042 47.2648 57.509C44.8415 58.9081 42.4405 60.1938 40.0853 61.3575C37.6068 60.1697 35.1762 58.8897 32.7933 57.5176C30.4238 56.1537 28.1087 54.7014 25.8479 53.1606C25.6412 50.4352 25.5371 47.7048 25.5356 44.9695L25.5361 44.9704C25.5342 42.237 25.636 39.5064 25.8416 36.7787C28.0563 35.2663 30.378 33.8036 32.7785 32.4177C35.1899 31.0252 37.621 29.745 40.0387 28.5846C42.4866 29.7743 44.8904 31.0493 47.25 32.4095C49.6178 33.7704 51.9395 35.2072 54.2149 36.72C54.4103 39.4611 54.508 42.2063 54.5082 44.9558H54.5079ZM58.8097 22.0567C67.4486 20.3763 73.9624 21.5067 75.5941 24.3328C77.3324 27.3437 74.8411 33.9932 68.6076 40.9979L68.6073 40.9982C68.2629 41.3846 67.9056 41.7726 67.5353 42.1623C64.498 39.4167 61.2772 36.8811 57.8953 34.5731C57.5541 30.5667 56.945 26.5876 56.0722 22.6626C57.0025 22.4337 57.9149 22.2318 58.8097 22.0567V22.0567ZM58.2257 39.5236C60.5068 41.1891 62.7 42.9718 64.7965 44.8646C62.7093 46.7884 60.523 48.6019 58.2465 50.2976C58.3162 48.5173 58.3505 46.7361 58.3494 44.954C58.3486 43.1435 58.3074 41.3334 58.2257 39.5236V39.5236ZM75.618 65.5519C73.9838 68.3898 67.669 69.5732 59.1964 67.9702C58.2254 67.7869 57.2291 67.5688 56.2075 67.3157C57.0592 63.3402 57.6412 59.3116 57.9496 55.2576C61.3258 52.9093 64.5364 50.3315 67.5587 47.5424C68.0875 48.0918 68.5906 48.6387 69.0678 49.183V49.1826C71.7704 52.1212 73.9089 55.5322 75.3765 59.2451C75.8458 60.224 76.1094 61.2887 76.1509 62.3735C76.1925 63.4583 76.0111 64.54 75.618 65.5519V65.5519Z" fill="black"/>
</svg>
