<svg width="28" height="27" viewBox="0 0 28 27" fill="none" xmlns="http://www.w3.org/2000/svg">
<path d="M16.7951 12.6045H20.1821C20.3663 12.6055 20.5489 12.5702 20.7195 12.5006C20.89 12.4309 21.0451 12.3283 21.1759 12.1986L27.586 5.78844C27.7172 5.65833 27.8213 5.50353 27.8924 5.33298C27.9634 5.16243 28 4.97949 28 4.79473C28 4.60996 27.9634 4.42703 27.8924 4.25648C27.8213 4.08592 27.7172 3.93113 27.586 3.80102L24.199 0.413998C24.0689 0.282816 23.9141 0.178694 23.7435 0.107638C23.573 0.0365829 23.39 0 23.2053 0C23.0205 0 22.8376 0.0365829 22.667 0.107638C22.4965 0.178694 22.3417 0.282816 22.2116 0.413998L15.8014 6.82414C15.5457 7.09235 15.4007 7.44728 15.3955 7.81785V11.2049C15.3955 11.5761 15.543 11.9321 15.8055 12.1945C16.0679 12.457 16.4239 12.6045 16.7951 12.6045ZM18.1947 8.40568L23.2053 3.39513L24.6049 4.79473L19.5943 9.80527H18.1947V8.40568ZM26.5923 11.2049C26.2211 11.2049 25.8651 11.3523 25.6026 11.6148C25.3402 11.8773 25.1927 12.2333 25.1927 12.6045V22.4016C25.1927 22.7728 25.0452 23.1288 24.7828 23.3913C24.5203 23.6538 24.1643 23.8012 23.7931 23.8012H4.19878C3.82759 23.8012 3.4716 23.6538 3.20912 23.3913C2.94665 23.1288 2.79919 22.7728 2.79919 22.4016V8.95152L11.0288 17.1951C11.4194 17.5908 11.8846 17.9049 12.3976 18.1194C12.9105 18.3338 13.461 18.4442 14.0169 18.4442C14.5729 18.4442 15.1233 18.3338 15.6363 18.1194C16.1492 17.9049 16.6145 17.5908 17.0051 17.1951C17.2615 16.9335 17.4052 16.5818 17.4052 16.2154C17.4052 15.8491 17.2615 15.4973 17.0051 15.2357C16.8747 15.1024 16.7191 14.9965 16.5472 14.9242C16.3754 14.8518 16.1908 14.8146 16.0044 14.8146C15.8179 14.8146 15.6334 14.8518 15.4615 14.9242C15.2897 14.9965 15.134 15.1024 15.0037 15.2357C14.742 15.4921 14.3903 15.6358 14.0239 15.6358C13.6576 15.6358 13.3058 15.4921 13.0442 15.2357L4.77262 6.97809H11.1968C11.5679 6.97809 11.9239 6.83064 12.1864 6.56816C12.4489 6.30569 12.5963 5.9497 12.5963 5.5785C12.5963 5.2073 12.4489 4.85131 12.1864 4.58884C11.9239 4.32636 11.5679 4.17891 11.1968 4.17891H4.19878C3.0852 4.17891 2.01722 4.62128 1.2298 5.4087C0.442371 6.19613 0 7.2641 0 8.37769V22.3736C0 23.4872 0.442371 24.5552 1.2298 25.3426C2.01722 26.13 3.0852 26.5724 4.19878 26.5724H23.7931C24.9067 26.5724 25.9747 26.13 26.7621 25.3426C27.5495 24.5552 27.9919 23.4872 27.9919 22.3736V12.5765C27.9919 12.2053 27.8444 11.8493 27.582 11.5868C27.3195 11.3243 26.9635 11.1769 26.5923 11.1769V11.2049Z" fill="black"/>
</svg>
