<svg width="30" height="28" viewBox="0 0 30 28" fill="none" xmlns="http://www.w3.org/2000/svg">
<path d="M28.6862 1.23698C28.3065 0.921157 27.8484 0.714172 27.3605 0.638051C26.8726 0.561931 26.3731 0.619522 25.9153 0.804698L2.0208 10.4518C1.5098 10.6621 1.07482 11.0228 0.773598 11.486C0.472376 11.9492 0.319155 12.4931 0.334272 13.0455C0.349389 13.5978 0.532128 14.1325 0.858236 14.5786C1.18434 15.0247 1.6384 15.361 2.16013 15.543L6.99346 17.224L9.68746 26.1328C9.72407 26.2518 9.77721 26.3651 9.8453 26.4693C9.85564 26.4853 9.87021 26.4972 9.8812 26.5128C9.95987 26.6226 10.055 26.7196 10.1631 26.8005C10.1939 26.8239 10.2233 26.8459 10.2562 26.8667C10.3828 26.9507 10.523 27.0121 10.6705 27.0482L10.6863 27.0495L10.6952 27.0534C10.784 27.0714 10.8742 27.0806 10.9648 27.0807C10.9735 27.0807 10.9812 27.0765 10.9898 27.0764C11.1265 27.074 11.2619 27.0505 11.3913 27.0066C11.4214 26.9964 11.4472 26.9792 11.4764 26.9668C11.5729 26.9269 11.6643 26.8756 11.7488 26.8141C11.8164 26.7571 11.8841 26.7001 11.9518 26.6432L15.5546 22.6653L20.9283 26.8281C21.4014 27.1964 21.9837 27.3966 22.5833 27.3971C23.2115 27.3963 23.8204 27.1795 24.3078 26.7832C24.7952 26.3868 25.1315 25.8349 25.2604 25.22L29.6106 3.86459C29.7092 3.38395 29.6753 2.88555 29.5124 2.42271C29.3496 1.95987 29.064 1.55001 28.6862 1.23698V1.23698ZM11.4935 17.6484C11.3086 17.8326 11.1822 18.0672 11.1302 18.3229L10.7175 20.3283L9.67209 16.8708L15.0924 14.0482L11.4935 17.6484ZM22.5625 24.72L16.2122 19.8007C15.9465 19.5954 15.6133 19.4978 15.2788 19.5272C14.9443 19.5567 14.6332 19.711 14.4075 19.9596L13.2536 21.2332L13.6614 19.2513L23.1054 9.80726C23.3308 9.58214 23.4682 9.28373 23.4926 8.96609C23.517 8.64844 23.4268 8.33257 23.2384 8.07568C23.0499 7.81879 22.7758 7.63788 22.4655 7.56571C22.1552 7.49354 21.8293 7.53488 21.5468 7.68226L7.99313 14.7391L3.02732 12.9219L26.9986 3.332L22.5625 24.72Z" fill="black"/>
</svg>
