<svg width="28" height="28" viewBox="0 0 28 28" fill="none" xmlns="http://www.w3.org/2000/svg">
<path d="M18.9881 9.7676C19.1624 9.83394 19.3475 9.86717 19.5339 9.86556H25.1317C25.5029 9.86556 25.8589 9.71812 26.1213 9.45567C26.3838 9.19322 26.5312 8.83726 26.5312 8.4661C26.5312 8.09494 26.3838 7.73898 26.1213 7.47653C25.8589 7.21408 25.5029 7.06664 25.1317 7.06664H22.9066L27.5108 2.46241C27.6573 2.33695 27.7763 2.18257 27.8603 2.00894C27.9443 1.83532 27.9915 1.64621 27.999 1.45348C28.0064 1.26074 27.9739 1.06855 27.9036 0.888966C27.8332 0.70938 27.7265 0.546277 27.5901 0.409893C27.4537 0.273508 27.2906 0.166788 27.111 0.0964312C26.9314 0.0260739 26.7393 -0.00640156 26.5465 0.00104286C26.3538 0.00848728 26.1647 0.055691 25.9911 0.139691C25.8174 0.223691 25.663 0.342674 25.5376 0.489172L20.9334 5.0794V2.85426C20.9334 2.4831 20.7859 2.12714 20.5235 1.86469C20.261 1.60224 19.9051 1.4548 19.5339 1.4548C19.1627 1.4548 18.8068 1.60224 18.5443 1.86469C18.2819 2.12714 18.1344 2.4831 18.1344 2.85426V8.4521C18.1328 8.63855 18.1661 8.82365 18.2324 8.99789C18.3012 9.1698 18.4034 9.32636 18.5331 9.45848C18.6628 9.5906 18.8175 9.69567 18.9881 9.7676V9.7676ZM24.432 15.3654C24.1241 15.3654 23.8023 15.2675 23.4944 15.1975C22.8709 15.0601 22.2582 14.8777 21.6611 14.6517C21.0119 14.4155 20.2982 14.4278 19.6575 14.6861C19.0168 14.9445 18.4942 15.4307 18.1904 16.0512L17.8825 16.6809C16.5195 15.9227 15.2669 14.9809 14.16 13.882C13.0611 12.7751 12.1193 11.5225 11.3611 10.1594L11.9488 9.7676C12.5693 9.4638 13.0555 8.94126 13.3139 8.30053C13.5722 7.6598 13.5845 6.94616 13.3483 6.29693C13.1261 5.69856 12.9438 5.08612 12.8025 4.46364C12.7325 4.15576 12.6765 3.83388 12.6346 3.51201C12.4646 2.52626 11.9483 1.63357 11.1786 0.994713C10.4089 0.355855 9.43637 0.0128084 8.43618 0.0273504H4.2378C3.63468 0.0216874 3.03741 0.146043 2.48667 0.391952C1.93592 0.637862 1.44463 0.99955 1.04623 1.4524C0.647835 1.90524 0.351687 2.43861 0.177949 3.0162C0.00421055 3.59378 -0.0430383 4.20202 0.0394189 4.79951C0.784965 10.6624 3.46254 16.1098 7.6492 20.2812C11.8359 24.4527 17.293 27.1104 23.1585 27.8346H23.6903C24.7223 27.8361 25.7187 27.4575 26.4892 26.771C26.932 26.3751 27.2856 25.8896 27.5269 25.3468C27.7681 24.804 27.8914 24.2162 27.8887 23.6223V19.4239C27.8715 18.4518 27.5176 17.5158 26.8871 16.7756C26.2567 16.0355 25.389 15.537 24.432 15.3654V15.3654ZM25.1317 23.7622C25.1315 23.9609 25.0889 24.1573 25.0069 24.3382C24.9248 24.5192 24.8052 24.6807 24.6559 24.8118C24.4996 24.9468 24.3167 25.0477 24.1191 25.1079C23.9215 25.1682 23.7135 25.1865 23.5084 25.1617C18.2673 24.4896 13.399 22.0919 9.67151 18.3467C5.94402 14.6015 3.56943 9.72188 2.92231 4.47763C2.90003 4.27264 2.91955 4.06526 2.97969 3.86802C3.03982 3.67078 3.13932 3.48778 3.27217 3.33008C3.40332 3.1808 3.56475 3.06116 3.74572 2.97912C3.92669 2.89707 4.12307 2.85451 4.32177 2.85426H8.52015C8.84559 2.84702 9.16337 2.95345 9.4188 3.15524C9.67423 3.35703 9.85133 3.64155 9.91961 3.95983C9.97559 4.34235 10.0456 4.72021 10.1295 5.0934C10.2912 5.83111 10.5063 6.55609 10.7733 7.26256L8.81404 8.17221C8.64652 8.24907 8.49583 8.35826 8.37063 8.49352C8.24542 8.62878 8.14817 8.78743 8.08446 8.96038C8.02074 9.13333 7.99181 9.31715 7.99934 9.50131C8.00686 9.68546 8.05069 9.86632 8.1283 10.0335C10.1424 14.3477 13.6103 17.8156 17.9245 19.8297C18.2652 19.9697 18.6474 19.9697 18.9881 19.8297C19.1626 19.7673 19.323 19.6708 19.46 19.5459C19.5969 19.421 19.7077 19.2701 19.7858 19.102L20.6535 17.1428C21.3769 17.4015 22.1153 17.6165 22.8646 17.7865C23.2378 17.8705 23.6157 17.9404 23.9982 17.9964C24.3165 18.0647 24.601 18.2418 24.8028 18.4972C25.0046 18.7527 25.111 19.0704 25.1038 19.3959L25.1317 23.7622Z" fill="black"/>
</svg>
