<svg width="30" height="30" viewBox="0 0 30 30" fill="none" xmlns="http://www.w3.org/2000/svg">
<path d="M19.9915 17.0391C19.602 16.6179 19.1646 16.2438 18.6882 15.9242C20.6105 14.438 21.9577 12.3308 22.4999 9.96224C22.5399 9.79107 22.5457 9.61367 22.5169 9.44026C22.4881 9.26685 22.4253 9.10084 22.3321 8.95179C22.239 8.80274 22.1172 8.67359 21.9739 8.57177C21.8306 8.46995 21.6686 8.39747 21.4972 8.3585C21.3258 8.31953 21.1483 8.31484 20.9751 8.3447C20.8019 8.37456 20.6363 8.43838 20.4878 8.53249C20.3393 8.6266 20.2109 8.74914 20.11 8.89306C20.009 9.03698 19.9376 9.19944 19.8997 9.37109C19.6471 10.479 19.1559 11.5186 18.4604 12.4172C17.7648 13.3158 16.8816 14.0519 15.8723 14.5741V9.66933C15.8641 9.57122 15.8445 9.47438 15.8141 9.38076C15.8052 9.30367 15.7898 9.22747 15.7681 9.15299C15.7112 9.03173 15.6362 8.91982 15.5457 8.82111C15.5218 8.79279 15.5098 8.75544 15.4837 8.72924C15.386 8.63907 15.2755 8.56399 15.1556 8.50649C15.1216 8.48835 15.0963 8.45767 15.0605 8.44249C14.9584 8.40846 14.8526 8.38668 14.7453 8.37763C14.6791 8.35825 14.6114 8.34434 14.5429 8.33604L13.6705 8.33333H13.6666C13.3547 8.33184 13.0522 8.44028 12.8123 8.6396C12.5723 8.83893 12.4103 9.1164 12.3546 9.42331C12.2989 9.73021 12.3531 10.0469 12.5076 10.3179C12.6622 10.5888 12.9072 10.7966 13.1998 10.9049V17.4258C11.0869 15.2325 9.68781 12.4507 9.18677 9.44667C9.15753 9.27405 9.09458 9.10888 9.0015 8.9606C8.90843 8.81231 8.78706 8.68381 8.64433 8.58242C8.50159 8.48104 8.34029 8.40877 8.16962 8.36973C7.99895 8.33068 7.82227 8.32564 7.64965 8.35488C7.47703 8.38412 7.31187 8.44707 7.16358 8.54015C7.01529 8.63322 6.88679 8.75459 6.78541 8.89732C6.68403 9.04006 6.61175 9.20136 6.57271 9.37203C6.53367 9.5427 6.52862 9.71938 6.55786 9.892C7.33705 14.5354 9.92638 18.6801 13.7577 21.4167C13.8124 21.4495 13.8693 21.4782 13.9281 21.5027C13.9743 21.5298 14.0222 21.5539 14.0715 21.5749C14.2203 21.6344 14.3787 21.6664 14.539 21.6693C14.7351 21.6669 14.9282 21.6205 15.1041 21.5335C15.1173 21.5273 15.1326 21.5302 15.1458 21.5235C15.2636 21.4621 15.3715 21.3833 15.4659 21.2898C15.4849 21.2713 15.4976 21.2486 15.5155 21.2291C15.6015 21.1345 15.6733 21.028 15.7287 20.9128C15.7472 20.8746 15.7642 20.838 15.7791 20.7978C15.8376 20.6507 15.8692 20.4943 15.8723 20.336L15.873 17.5013C16.6991 17.7439 17.4435 18.2071 18.026 18.8412L20.2232 21.237C20.3414 21.3665 20.484 21.4713 20.6428 21.5456C20.8016 21.6199 20.9735 21.6622 21.1486 21.6699C21.3238 21.6777 21.4987 21.6508 21.6635 21.5909C21.8282 21.5309 21.9795 21.4391 22.1087 21.3206C22.2379 21.2021 22.3425 21.0593 22.4164 20.9003C22.4903 20.7414 22.5322 20.5694 22.5396 20.3942C22.5469 20.2191 22.5197 20.0442 22.4594 19.8796C22.399 19.7149 22.3069 19.5639 22.1881 19.4349L19.9915 17.0391ZM19.0969 0.333333H10.9166C2.70695 0.333333 0.333252 2.70443 0.333252 10.9023V19.0833C0.333252 27.293 2.70369 29.6667 10.9029 29.6667H19.0833C27.2929 29.6667 29.6666 27.2956 29.6666 19.0977V10.9167C29.6666 2.70703 27.2961 0.333333 19.0969 0.333333ZM26.9999 19.0977C26.9999 25.8177 25.8163 27 19.0833 27H10.9029C4.18156 27 2.99992 25.8164 2.99992 19.0833V10.9023C2.99992 4.18229 4.18352 3 10.9166 3H19.0969C25.8183 3 26.9999 4.1836 26.9999 10.9167V19.0977Z" fill="black"/>
</svg>
